<svg width="533" height="50" viewBox="0 0 533 50" fill="none" xmlns="http://www.w3.org/2000/svg">
<circle cx="25" cy="25" r="25" fill="#2992FF" fill-opacity="0.6"/>
<circle cx="145.688" cy="25" r="25" fill="#2992FF" fill-opacity="0.6"/>
<circle cx="265.453" cy="25" r="25" fill="#2992FF" fill-opacity="0.6"/>
<circle cx="385.218" cy="25" r="25" fill="#2992FF" fill-opacity="0.6"/>
<circle cx="507.688" cy="25" r="25" fill="#2992FF" fill-opacity="0.6"/>
<path d="M120.476 25.2906C120.866 24.9001 120.866 24.2669 120.476 23.8764L114.112 17.5124C113.721 17.1219 113.088 17.1219 112.697 17.5124C112.307 17.903 112.307 18.5361 112.697 18.9266L118.354 24.5835L112.697 30.2404C112.307 30.6309 112.307 31.264 112.697 31.6546C113.088 32.0451 113.721 32.0451 114.112 31.6546L120.476 25.2906ZM56.3044 25.5835H119.768V23.5835H56.3044V25.5835Z" fill="#898989"/>
<path d="M240.241 25.2906C240.631 24.9001 240.631 24.2669 240.241 23.8764L233.877 17.5124C233.486 17.1219 232.853 17.1219 232.463 17.5124C232.072 17.903 232.072 18.5361 232.463 18.9266L238.12 24.5835L232.463 30.2404C232.072 30.6309 232.072 31.264 232.463 31.6546C232.853 32.0451 233.486 32.0451 233.877 31.6546L240.241 25.2906ZM176.07 25.5835H239.534V23.5835H176.07V25.5835Z" fill="#898989"/>
<path d="M360.006 25.2906C360.397 24.9001 360.397 24.2669 360.006 23.8764L353.642 17.5124C353.252 17.1219 352.619 17.1219 352.228 17.5124C351.838 17.903 351.838 18.5361 352.228 18.9266L357.885 24.5835L352.228 30.2404C351.838 30.6309 351.838 31.264 352.228 31.6546C352.619 32.0451 353.252 32.0451 353.642 31.6546L360.006 25.2906ZM295.835 25.5835H359.299V23.5835H295.835V25.5835Z" fill="#898989"/>
<path d="M479.772 25.2906C480.162 24.9001 480.162 24.2669 479.772 23.8764L473.408 17.5124C473.017 17.1219 472.384 17.1219 471.993 17.5124C471.603 17.903 471.603 18.5361 471.993 18.9266L477.65 24.5835L471.993 30.2404C471.603 30.6309 471.603 31.264 471.993 31.6546C472.384 32.0451 473.017 32.0451 473.408 31.6546L479.772 25.2906ZM415.6 25.5835H479.064V23.5835H415.6V25.5835Z" fill="#898989"/>
</svg>
